<?xml version="1.0" encoding="UTF-8"?><svg id="Layer_2" xmlns="http://www.w3.org/2000/svg" viewBox="0 0 53.5 53.5"><defs><style>.cls-1{fill:#147ce5;}</style></defs><g id="Layer_1-2"><g id="Layer_2-2"><g id="Layer_1-2"><path class="cls-1" d="M26.75,0C11.98,0,0,11.98,0,26.75s11.98,26.75,26.75,26.75,26.75-11.98,26.75-26.75S41.52,0,26.75,0Zm0,35.5c-4.83,0-8.75-3.92-8.75-8.75s3.92-8.75,8.75-8.75,8.75,3.92,8.75,8.75-3.92,8.75-8.75,8.75h0Zm11.11-18c-1.3,0-2.36-1.06-2.36-2.36s1.06-2.36,2.36-2.36c1.3,0,2.36,1.06,2.36,2.36,0,1.3-1.05,2.36-2.35,2.37,0,0,0,0-.01,0h0Z"/></g></g></g></svg>