<?xml version="1.0" encoding="UTF-8"?><svg id="Layer_2" xmlns="http://www.w3.org/2000/svg" viewBox="0 0 53.5 53.5"><defs><style>.cls-1{fill:#147ce5;}</style></defs><g id="Layer_1-2"><g id="Layer_2-2"><g id="Layer_1-2"><path class="cls-1" d="M26.75,0C11.98,0,0,11.98,0,26.75s11.98,26.75,26.75,26.75,26.75-11.98,26.75-26.75S41.52,0,26.75,0Zm10.4,21.86v.63c0,7.73-6.25,14.01-13.98,14.02-2.69,0-5.32-.77-7.58-2.22,.39,.05,.78,.07,1.17,.07,2.22,0,4.37-.74,6.12-2.11-2.11-.04-3.96-1.41-4.6-3.42,.31,.06,.62,.09,.93,.09,.44,0,.87-.06,1.29-.17-2.3-.47-3.95-2.49-3.95-4.83v-.06c.68,.38,1.45,.59,2.23,.61-2.16-1.44-2.83-4.32-1.52-6.57,2.52,3.06,6.21,4.92,10.17,5.1-.08-.37-.13-.74-.13-1.12,0-2.72,2.22-4.93,4.94-4.92,1.36,0,2.65,.56,3.58,1.55,1.12-.2,2.19-.59,3.18-1.15-.37,1.14-1.14,2.11-2.17,2.72,.98-.11,1.93-.37,2.83-.77-.68,.99-1.53,1.86-2.51,2.55Z"/></g></g></g></svg>